# xmcd CD database file
#
# Track frame offsets:
#	150
#	21479
#	38659
#	56082
#	82035
#	103870
#	118601
#	126915
#	143264
#	162590
#	178996
#	196573
#
# Disc length: 2792 seconds
#
# Revision: 0
# Processed by: cddbd v1.5.1PL2 Copyright (c) Steve Scherf et al.
# Submitted via: CDex 1.51
#
DISCID=a50ae60c
DTITLE=New millenium era - The best of New age Songs
DYEAR=2005
DGENRE=New Age
TTITLE0=Spente le stelle
TTITLE1=Ameno
TTITLE2=Anywhere is
TTITLE3=The mummers' dance
TTITLE4=1492 conquest of paradise
TTITLE5=Only if
TTITLE6=I will find you
TTITLE7=Orinoco flow
TTITLE8=Sadeness part 1
TTITLE9=Caribbean Blue
TTITLE10=Once upon a time
TTITLE11=Book of days
EXTD=YEAR: 2005
EXTT0=
EXTT1=
EXTT2=
EXTT3=
EXTT4=
EXTT5=
EXTT6=
EXTT7=
EXTT8=
EXTT9=
EXTT10=
EXTT11=
PLAYORDER=
